# Blender v2.78 (sub 0) OBJ File: ''
# www.blender.org
o Cube
v 2.353882 4.537623 11.420401
v 3.107310 2.141609 9.212993
v 2.465489 2.176793 11.488387
v 2.995704 4.502439 9.145006
v 5.380238 2.267467 9.852172
v 5.268631 4.628296 9.784185
v 4.738418 2.302652 12.127566
v 4.626811 4.663481 12.059580
vn -0.9613 -0.0532 -0.2703
vn 0.2714 -0.0149 -0.9623
vn 0.9613 0.0532 0.2703
vn -0.2714 0.0149 0.9623
vn 0.0472 -0.9985 0.0288
vn -0.0472 0.9985 -0.0288
s 1
f 1//1 2//1 3//1
f 4//2 5//2 2//2
f 6//3 7//3 5//3
f 7//4 1//4 3//4
f 5//5 3//5 2//5
f 4//6 8//6 6//6
f 1//1 4//1 2//1
f 4//2 6//2 5//2
f 6//3 8//3 7//3
f 7//4 8//4 1//4
f 5//5 7//5 3//5
f 4//6 1//6 8//6
