# Blender v2.78 (sub 0) OBJ File: ''
# www.blender.org
o box
v 5.613238 3.546735 9.576563
v 4.041940 4.451647 12.386072
v 5.404494 2.628568 11.745431
v 4.250684 5.369814 10.217203
v 2.120882 3.258356 11.696012
v 2.329626 4.176523 9.527143
v 3.483435 1.435276 11.055369
v 3.692180 2.353444 8.886502
vn 0.8528 0.0704 -0.5175
vn 0.0854 0.5123 0.8545
vn 0.7508 -0.3780 0.5417
vn 0.1873 0.9607 -0.2047
vn -0.8528 -0.0704 0.5175
vn -0.7508 0.3780 -0.5417
vn -0.1873 -0.9607 0.2047
vn -0.0854 -0.5123 -0.8545
s 1
f 1//1 2//2 3//3
f 4//4 5//5 2//2
f 6//6 7//7 5//5
f 7//7 1//1 3//3
f 5//5 3//3 2//2
f 4//4 8//8 6//6
f 1//1 4//4 2//2
f 4//4 6//6 5//5
f 6//6 8//8 7//7
f 7//7 8//8 1//1
f 5//5 7//7 3//3
f 4//4 1//1 8//8
