# Blender v2.78 (sub 0) OBJ File: ''
# www.blender.org
o Cube
v 5.088052 3.986557 13.279189
v 5.989640 3.532263 10.091409
v 4.989786 2.181755 11.754842
v 6.087906 5.337066 11.615754
v 8.130020 2.818531 10.798477
v 8.228286 4.623331 12.322824
v 7.130167 1.468022 12.461913
v 7.228433 3.272824 13.986259
vn -0.9052 0.3019 -0.2990
vn 0.4229 0.5712 -0.7035
vn 0.9052 -0.3019 0.2990
vn -0.4229 -0.5712 0.7035
vn -0.0416 -0.7633 -0.6447
vn 0.0416 0.7633 0.6447
s 1
f 1//1 2//1 3//1
f 4//2 5//2 2//2
f 6//3 7//3 5//3
f 7//4 1//4 3//4
f 5//5 3//5 2//5
f 4//6 8//6 6//6
f 1//1 4//1 2//1
f 4//2 6//2 5//2
f 6//3 8//3 7//3
f 7//4 8//4 1//4
f 5//5 7//5 3//5
f 4//6 1//6 8//6
