# Blender v2.78 (sub 0) OBJ File: ''
# www.blender.org
o sphere
v 4.004849 7.463328 11.400995
v 4.080763 7.475303 11.456149
v 3.975854 7.475303 11.490237
v 4.275208 7.669861 11.597420
v 4.232592 7.591288 11.566458
v 4.308506 7.649282 11.511304
v 3.911014 7.475304 11.400995
v 3.975854 7.475303 11.311754
v 4.080763 7.475303 11.345841
v 4.326428 7.743118 11.566459
v 3.901584 7.669861 11.718820
v 3.993775 7.649282 11.723877
v 3.946857 7.743117 11.757966
v 3.670669 7.669863 11.400995
v 3.694347 7.649283 11.490237
v 3.647429 7.743118 11.456149
v 3.901584 7.669862 11.083170
v 3.824025 7.649282 11.133268
v 3.841946 7.743118 11.078113
v 4.275208 7.669862 11.204571
v 4.203597 7.649282 11.146290
v 4.261590 7.743118 11.146289
v 4.261590 7.743117 11.655702
v 3.841946 7.743117 11.723879
v 3.647429 7.743118 11.345841
v 3.946857 7.743118 11.044024
v 4.326428 7.743118 11.235532
v 4.108115 8.004047 11.718820
v 4.185673 8.024628 11.668723
v 4.091838 8.082621 11.668722
v 3.734491 8.004046 11.597420
v 3.806103 8.024628 11.655701
v 3.777107 8.082621 11.566459
v 3.734491 8.004047 11.204571
v 3.701193 8.024628 11.290687
v 3.777107 8.082621 11.235533
v 4.108115 8.004047 11.083171
v 4.015923 8.024628 11.078114
v 4.091838 8.082621 11.133269
v 4.339030 8.004046 11.400995
v 4.315351 8.024627 11.311754
v 4.286355 8.082620 11.400996
v 4.098684 8.198606 11.400996
v 4.033845 8.198606 11.311754
v 4.004849 8.210580 11.400996
v 4.201276 8.154779 11.400996
v 4.140027 8.171137 11.302784
v 4.243295 8.107314 11.302783
v 4.065547 8.154781 11.214185
v 4.171938 8.107314 11.204570
v 4.261975 8.033383 11.214183
v 4.185673 8.024628 11.133268
v 3.928936 8.198606 11.345842
v 3.953215 8.171137 11.242085
v 3.985126 8.107315 11.143872
v 3.845938 8.154781 11.285542
v 3.869670 8.107315 11.181386
v 3.906635 8.033383 11.098727
v 3.806103 8.024628 11.146290
v 3.928936 8.198606 11.456149
v 3.837760 8.171137 11.400996
v 3.754215 8.107314 11.340298
v 3.845938 8.154780 11.516450
v 3.754215 8.107314 11.461694
v 3.687025 8.033383 11.400995
v 3.701193 8.024627 11.511305
v 4.033845 8.198606 11.490237
v 3.953215 8.171137 11.559906
v 3.869670 8.107315 11.620605
v 4.065547 8.154780 11.587807
v 3.985126 8.107315 11.658120
v 3.906635 8.033383 11.703263
v 4.015923 8.024628 11.723878
v 4.140027 8.171137 11.499208
v 4.171938 8.107314 11.597422
v 4.243295 8.107314 11.499208
v 4.261975 8.033383 11.587808
v 4.315351 8.024627 11.490237
v 4.362270 7.930790 11.345841
v 4.360189 7.836955 11.285541
v 4.326841 7.940224 11.242084
v 4.307120 7.836955 11.181384
v 4.255486 7.940224 11.143869
v 4.224462 7.836955 11.098725
v 4.167753 7.930791 11.078113
v 4.062841 7.930791 11.044024
v 4.004849 7.836955 11.027369
v 3.953215 7.940224 11.045657
v 3.889393 7.836955 11.045656
v 3.837758 7.940224 11.083171
v 3.785238 7.836955 11.098725
v 3.748109 7.930791 11.146289
v 3.683270 7.930791 11.235532
v 3.649509 7.836955 11.285541
v 3.650946 7.940224 11.340297
v 3.631223 7.836955 11.400995
v 3.650946 7.940223 11.461695
v 3.649509 7.836955 11.516451
v 3.683270 7.930790 11.566459
v 3.748109 7.930791 11.655702
v 3.785238 7.836954 11.703265
v 3.837758 7.940224 11.718820
v 3.889393 7.836954 11.756335
v 3.953215 7.940224 11.756334
v 4.004849 7.836954 11.774622
v 4.062841 7.930790 11.757966
v 4.167753 7.930791 11.723879
v 4.224462 7.836954 11.703265
v 4.255486 7.940223 11.658121
v 4.307120 7.836954 11.620606
v 4.326841 7.940223 11.559907
v 4.360189 7.836955 11.516451
v 4.362270 7.930790 11.456149
v 4.120306 7.836955 11.045656
v 4.171941 7.733685 11.083171
v 4.056484 7.733685 11.045657
v 4.103064 7.640525 11.098727
v 3.993775 7.649282 11.078114
v 3.702579 7.836955 11.181384
v 3.754214 7.733685 11.143869
v 3.682857 7.733686 11.242084
v 3.747724 7.640526 11.214183
v 3.694347 7.649283 11.311754
v 3.702579 7.836954 11.620606
v 3.682857 7.733686 11.559908
v 3.754214 7.733685 11.658121
v 3.747724 7.640526 11.587808
v 3.824025 7.649282 11.668723
v 4.120306 7.836954 11.756335
v 4.056484 7.733685 11.756334
v 4.171941 7.733685 11.718820
v 4.103064 7.640525 11.703263
v 4.203597 7.649282 11.655701
v 4.378475 7.836955 11.400995
v 4.358753 7.733686 11.461695
v 4.358753 7.733686 11.340297
v 4.322674 7.640526 11.400995
v 4.308506 7.649282 11.290687
v 4.232592 7.591289 11.235533
v 4.163761 7.519128 11.285542
v 4.140028 7.566595 11.181386
v 4.056483 7.502773 11.242085
v 4.024573 7.566595 11.143871
v 3.944152 7.519128 11.214184
v 3.917861 7.591289 11.133269
v 3.837759 7.566595 11.204570
v 3.869671 7.502773 11.302783
v 3.766403 7.566595 11.302783
v 3.808423 7.519129 11.400995
v 3.723344 7.591290 11.400995
v 3.766403 7.566596 11.499207
v 3.869671 7.502773 11.499207
v 3.837759 7.566594 11.597422
v 3.944152 7.519128 11.587807
v 3.917861 7.591288 11.668722
v 4.255485 7.566595 11.340298
v 4.255485 7.566595 11.461694
v 4.171939 7.502773 11.400996
v 4.163761 7.519128 11.516450
v 4.024574 7.566594 11.658119
v 4.056484 7.502773 11.559906
v 4.140029 7.566594 11.620605
vn 0.0482 -0.9878 0.1482
vn 0.7230 -0.5545 0.4121
vn -0.1261 -0.9878 0.0916
vn -0.1261 -0.9878 -0.0916
vn 0.0482 -0.9878 -0.1482
vn 0.8193 -0.3987 0.4121
vn -0.1387 -0.3987 0.9065
vn -0.9050 -0.3987 0.1482
vn -0.4206 -0.3987 -0.8149
vn 0.6451 -0.3987 -0.6518
vn 0.7711 -0.3024 0.5603
vn -0.2945 -0.3024 0.9065
vn -0.9532 -0.3024 0.0000
vn -0.2946 -0.3024 -0.9065
vn 0.7711 -0.3024 -0.5603
vn 0.3427 0.5545 0.7583
vn -0.6153 0.5545 0.5602
vn -0.7230 0.5545 -0.4121
vn 0.1685 0.5545 -0.8149
vn 0.8271 0.5545 -0.0916
vn 0.1261 0.9878 -0.0916
vn 0.3912 0.9158 -0.0915
vn 0.6441 0.7594 -0.0915
vn 0.2334 0.9575 -0.1696
vn 0.2079 0.9158 -0.3438
vn 0.5168 0.8363 -0.1830
vn 0.4911 0.7947 -0.3568
vn 0.3338 0.8363 -0.4350
vn 0.2860 0.7594 -0.5843
vn 0.7520 0.6369 -0.1696
vn 0.7261 0.5955 -0.3438
vn 0.5987 0.6726 -0.4350
vn 0.5513 0.5955 -0.5843
vn 0.3936 0.6369 -0.6628
vn 0.3427 0.5545 -0.7583
vn -0.0482 0.9878 -0.1482
vn 0.0339 0.9157 -0.4003
vn 0.1121 0.7594 -0.6409
vn -0.0892 0.9575 -0.2743
vn -0.2627 0.9158 -0.3039
vn -0.0144 0.8363 -0.5481
vn -0.1876 0.7947 -0.5773
vn -0.3106 0.8363 -0.4519
vn -0.4674 0.7594 -0.4526
vn 0.0711 0.6370 -0.7676
vn -0.1026 0.5955 -0.7968
vn -0.2287 0.6726 -0.7038
vn -0.3854 0.5955 -0.7049
vn -0.5088 0.6369 -0.5792
vn -0.6153 0.5545 -0.5603
vn -0.1558 0.9878 0.0000
vn -0.3702 0.9158 -0.1560
vn -0.5749 0.7594 -0.3046
vn -0.2885 0.9575 0.0000
vn -0.3702 0.9158 0.1560
vn -0.5257 0.8363 -0.1557
vn -0.6071 0.7947 0.0000
vn -0.5257 0.8363 0.1557
vn -0.5749 0.7594 0.3046
vn -0.7081 0.6369 -0.3049
vn -0.7895 0.5955 -0.1487
vn -0.7400 0.6726 0.0000
vn -0.7895 0.5955 0.1487
vn -0.7081 0.6369 0.3049
vn -0.7230 0.5545 0.4121
vn -0.0482 0.9878 0.1482
vn -0.2627 0.9157 0.3039
vn -0.4674 0.7594 0.4526
vn -0.0892 0.9575 0.2743
vn 0.0339 0.9157 0.4003
vn -0.3106 0.8363 0.4519
vn -0.1876 0.7947 0.5773
vn -0.0144 0.8363 0.5481
vn 0.1121 0.7594 0.6409
vn -0.5087 0.6369 0.5792
vn -0.3854 0.5955 0.7049
vn -0.2287 0.6726 0.7038
vn -0.1026 0.5955 0.7968
vn 0.0711 0.6370 0.7676
vn 0.1685 0.5545 0.8149
vn 0.1261 0.9878 0.0916
vn 0.2079 0.9157 0.3438
vn 0.2860 0.7594 0.5843
vn 0.2334 0.9575 0.1696
vn 0.3912 0.9158 0.0915
vn 0.3338 0.8363 0.4350
vn 0.4911 0.7947 0.3568
vn 0.5169 0.8363 0.1830
vn 0.6441 0.7594 0.0915
vn 0.3936 0.6369 0.6628
vn 0.5513 0.5955 0.5843
vn 0.5987 0.6726 0.4350
vn 0.7261 0.5955 0.3438
vn 0.7520 0.6369 0.1696
vn 0.8271 0.5545 0.0916
vn 0.9050 0.3987 -0.1482
vn 0.9366 0.1745 -0.3039
vn 0.8883 -0.0784 -0.4526
vn 0.8963 0.3485 -0.2743
vn 0.8039 0.4399 -0.4003
vn 0.8869 0.0962 -0.4519
vn 0.7947 0.1876 -0.5773
vn 0.7544 0.3611 -0.5481
vn 0.6291 0.4399 -0.6409
vn 0.7972 -0.1702 -0.5792
vn 0.7049 -0.0784 -0.7049
vn 0.7038 0.0962 -0.7038
vn 0.5785 0.1745 -0.7968
vn 0.5379 0.3485 -0.7676
vn 0.4206 0.3987 -0.8149
vn 0.1387 0.3987 -0.9065
vn 0.0004 0.1745 -0.9846
vn -0.1560 -0.0784 -0.9846
vn 0.0160 0.3485 -0.9372
vn -0.1323 0.4399 -0.8883
vn -0.1557 0.0962 -0.9831
vn -0.3035 0.1876 -0.9342
vn -0.2882 0.3611 -0.8869
vn -0.4151 0.4399 -0.7964
vn -0.3045 -0.1702 -0.9372
vn -0.4526 -0.0784 -0.8883
vn -0.4519 0.0962 -0.8869
vn -0.5791 0.1745 -0.7964
vn -0.5638 0.3485 -0.7488
vn -0.6451 0.3987 -0.6519
vn -0.8193 0.3987 -0.4121
vn -0.9363 0.1746 -0.3046
vn -0.9846 -0.0784 -0.1560
vn -0.8864 0.3485 -0.3048
vn -0.8857 0.4399 -0.1487
vn -0.9831 0.0962 -0.1557
vn -0.9822 0.1876 0.0000
vn -0.9325 0.3611 0.0000
vn -0.8857 0.4399 0.1487
vn -0.9854 -0.1702 0.0000
vn -0.9846 -0.0784 0.1560
vn -0.9831 0.0962 0.1557
vn -0.9363 0.1745 0.3046
vn -0.8864 0.3485 0.3048
vn -0.8193 0.3987 0.4121
vn -0.6451 0.3987 0.6519
vn -0.5791 0.1745 0.7964
vn -0.4526 -0.0784 0.8883
vn -0.5638 0.3485 0.7488
vn -0.4151 0.4399 0.7964
vn -0.4519 0.0962 0.8869
vn -0.3035 0.1876 0.9342
vn -0.2882 0.3611 0.8869
vn -0.1323 0.4399 0.8883
vn -0.3045 -0.1702 0.9372
vn -0.1559 -0.0784 0.9846
vn -0.1557 0.0962 0.9831
vn 0.0004 0.1745 0.9846
vn 0.0160 0.3485 0.9372
vn 0.1387 0.3987 0.9065
vn 0.4206 0.3987 0.8149
vn 0.5785 0.1745 0.7968
vn 0.7049 -0.0784 0.7049
vn 0.5379 0.3485 0.7676
vn 0.6291 0.4399 0.6409
vn 0.7038 0.0962 0.7038
vn 0.7947 0.1876 0.5773
vn 0.7544 0.3611 0.5481
vn 0.8039 0.4399 0.4003
vn 0.7972 -0.1702 0.5792
vn 0.8883 -0.0784 0.4526
vn 0.8869 0.0962 0.4519
vn 0.9366 0.1745 0.3039
vn 0.8963 0.3485 0.2744
vn 0.9050 0.3987 0.1482
vn 0.2945 0.3024 -0.9065
vn 0.4526 0.0784 -0.8883
vn 0.5791 -0.1745 -0.7964
vn 0.3045 0.1702 -0.9372
vn 0.1559 0.0784 -0.9846
vn 0.4519 -0.0962 -0.8869
vn 0.3035 -0.1876 -0.9342
vn 0.1557 -0.0962 -0.9831
vn -0.0003 -0.1745 -0.9846
vn 0.5638 -0.3485 -0.7488
vn 0.4151 -0.4399 -0.7964
vn 0.2882 -0.3611 -0.8869
vn 0.1323 -0.4399 -0.8883
vn -0.0160 -0.3485 -0.9372
vn -0.1387 -0.3987 -0.9065
vn -0.7711 0.3024 -0.5603
vn -0.7049 0.0784 -0.7049
vn -0.5785 -0.1745 -0.7968
vn -0.7972 0.1702 -0.5792
vn -0.8883 0.0784 -0.4526
vn -0.7038 -0.0962 -0.7038
vn -0.7947 -0.1876 -0.5773
vn -0.8869 -0.0962 -0.4519
vn -0.9366 -0.1745 -0.3039
vn -0.5379 -0.3485 -0.7676
vn -0.6291 -0.4399 -0.6409
vn -0.7544 -0.3611 -0.5481
vn -0.8039 -0.4399 -0.4003
vn -0.8963 -0.3485 -0.2744
vn -0.9050 -0.3987 -0.1482
vn -0.7711 0.3024 0.5603
vn -0.8883 0.0784 0.4526
vn -0.9366 -0.1745 0.3039
vn -0.7972 0.1702 0.5792
vn -0.7049 0.0784 0.7049
vn -0.8869 -0.0962 0.4519
vn -0.7947 -0.1876 0.5774
vn -0.7038 -0.0962 0.7038
vn -0.5785 -0.1745 0.7968
vn -0.8963 -0.3485 0.2744
vn -0.8039 -0.4399 0.4003
vn -0.7544 -0.3611 0.5481
vn -0.6291 -0.4399 0.6409
vn -0.5379 -0.3485 0.7676
vn -0.4206 -0.3987 0.8149
vn 0.2945 0.3024 0.9065
vn 0.1559 0.0784 0.9846
vn -0.0003 -0.1746 0.9846
vn 0.3045 0.1702 0.9372
vn 0.4526 0.0784 0.8883
vn 0.1557 -0.0962 0.9831
vn 0.3035 -0.1876 0.9342
vn 0.4519 -0.0962 0.8869
vn 0.5791 -0.1745 0.7964
vn -0.0161 -0.3485 0.9372
vn 0.1323 -0.4399 0.8883
vn 0.2882 -0.3611 0.8869
vn 0.4151 -0.4399 0.7964
vn 0.5638 -0.3485 0.7488
vn 0.6451 -0.3987 0.6519
vn 0.9532 0.3024 0.0000
vn 0.9847 0.0784 0.1559
vn 0.9363 -0.1745 0.3046
vn 0.9854 0.1702 0.0000
vn 0.9846 0.0784 -0.1559
vn 0.9831 -0.0962 0.1557
vn 0.9822 -0.1876 0.0000
vn 0.9831 -0.0962 -0.1557
vn 0.9363 -0.1745 -0.3046
vn 0.8864 -0.3485 0.3049
vn 0.8857 -0.4399 0.1487
vn 0.9325 -0.3611 0.0000
vn 0.8857 -0.4399 -0.1487
vn 0.8864 -0.3485 -0.3048
vn 0.8193 -0.3987 -0.4121
vn 0.6153 -0.5545 -0.5603
vn 0.4674 -0.7594 -0.4526
vn 0.2627 -0.9158 -0.3039
vn 0.5088 -0.6370 -0.5792
vn 0.3854 -0.5955 -0.7049
vn 0.3106 -0.8363 -0.4519
vn 0.1876 -0.7947 -0.5773
vn 0.2287 -0.6726 -0.7038
vn 0.1026 -0.5955 -0.7968
vn 0.0891 -0.9575 -0.2744
vn -0.0339 -0.9158 -0.4003
vn 0.0144 -0.8363 -0.5481
vn -0.1121 -0.7594 -0.6409
vn -0.0711 -0.6370 -0.7676
vn -0.1685 -0.5545 -0.8149
vn -0.3427 -0.5545 -0.7583
vn -0.2860 -0.7594 -0.5843
vn -0.2079 -0.9158 -0.3438
vn -0.3936 -0.6369 -0.6628
vn -0.5514 -0.5955 -0.5843
vn -0.3338 -0.8363 -0.4350
vn -0.4911 -0.7947 -0.3568
vn -0.5987 -0.6726 -0.4350
vn -0.7261 -0.5955 -0.3438
vn -0.2334 -0.9575 -0.1696
vn -0.3912 -0.9158 -0.0915
vn -0.5168 -0.8363 -0.1831
vn -0.6441 -0.7594 -0.0915
vn -0.7520 -0.6369 -0.1696
vn -0.8271 -0.5545 -0.0916
vn -0.8271 -0.5545 0.0916
vn -0.6441 -0.7594 0.0915
vn -0.3912 -0.9158 0.0915
vn -0.7520 -0.6369 0.1696
vn -0.7261 -0.5955 0.3438
vn -0.5168 -0.8363 0.1830
vn -0.4911 -0.7947 0.3568
vn -0.5987 -0.6726 0.4350
vn -0.5513 -0.5955 0.5844
vn -0.2334 -0.9575 0.1696
vn -0.2079 -0.9158 0.3438
vn -0.3338 -0.8363 0.4350
vn -0.2860 -0.7594 0.5843
vn -0.3937 -0.6369 0.6628
vn -0.3427 -0.5545 0.7583
vn 0.7230 -0.5545 -0.4121
vn 0.7895 -0.5955 -0.1487
vn 0.7895 -0.5955 0.1487
vn 0.7081 -0.6369 -0.3049
vn 0.5749 -0.7594 -0.3046
vn 0.7400 -0.6726 0.0000
vn 0.6071 -0.7947 0.0000
vn 0.5257 -0.8363 -0.1557
vn 0.3702 -0.9158 -0.1559
vn 0.7081 -0.6369 0.3048
vn 0.5749 -0.7594 0.3046
vn 0.5257 -0.8363 0.1557
vn 0.3702 -0.9158 0.1559
vn 0.2885 -0.9575 0.0000
vn 0.1558 -0.9878 0.0000
vn -0.1685 -0.5545 0.8149
vn -0.1121 -0.7594 0.6409
vn -0.0339 -0.9158 0.4003
vn -0.0711 -0.6369 0.7676
vn 0.1026 -0.5955 0.7968
vn 0.0144 -0.8363 0.5481
vn 0.1876 -0.7947 0.5773
vn 0.2287 -0.6726 0.7038
vn 0.3854 -0.5955 0.7049
vn 0.0891 -0.9575 0.2744
vn 0.2627 -0.9158 0.3039
vn 0.3106 -0.8363 0.4519
vn 0.4673 -0.7594 0.4526
vn 0.5088 -0.6369 0.5792
vn 0.6153 -0.5545 0.5603
s 1
f 1//1 2//1 3//1
f 4//2 5//2 6//2
f 1//3 3//3 7//3
f 1//4 7//4 8//4
f 1//5 8//5 9//5
f 4//6 6//6 10//6
f 11//7 12//7 13//7
f 14//8 15//8 16//8
f 17//9 18//9 19//9
f 20//10 21//10 22//10
f 4//11 10//11 23//11
f 11//12 13//12 24//12
f 14//13 16//13 25//13
f 17//14 19//14 26//14
f 20//15 22//15 27//15
f 28//16 29//16 30//16
f 31//17 32//17 33//17
f 34//18 35//18 36//18
f 37//19 38//19 39//19
f 40//20 41//20 42//20
f 43//21 44//21 45//21
f 46//22 47//22 43//22
f 42//23 48//23 46//23
f 43//24 47//24 44//24
f 47//25 49//25 44//25
f 46//26 48//26 47//26
f 48//27 50//27 47//27
f 47//28 50//28 49//28
f 50//29 39//29 49//29
f 42//30 41//30 48//30
f 41//31 51//31 48//31
f 48//32 51//32 50//32
f 51//33 52//33 50//33
f 50//34 52//34 39//34
f 52//35 37//35 39//35
f 44//36 53//36 45//36
f 49//37 54//37 44//37
f 39//38 55//38 49//38
f 44//39 54//39 53//39
f 54//40 56//40 53//40
f 49//41 55//41 54//41
f 55//42 57//42 54//42
f 54//43 57//43 56//43
f 57//44 36//44 56//44
f 39//45 38//45 55//45
f 38//46 58//46 55//46
f 55//47 58//47 57//47
f 58//48 59//48 57//48
f 57//49 59//49 36//49
f 59//50 34//50 36//50
f 53//51 60//51 45//51
f 56//52 61//52 53//52
f 36//53 62//53 56//53
f 53//54 61//54 60//54
f 61//55 63//55 60//55
f 56//56 62//56 61//56
f 62//57 64//57 61//57
f 61//58 64//58 63//58
f 64//59 33//59 63//59
f 36//60 35//60 62//60
f 35//61 65//61 62//61
f 62//62 65//62 64//62
f 65//63 66//63 64//63
f 64//64 66//64 33//64
f 66//65 31//65 33//65
f 60//66 67//66 45//66
f 63//67 68//67 60//67
f 33//68 69//68 63//68
f 60//69 68//69 67//69
f 68//70 70//70 67//70
f 63//71 69//71 68//71
f 69//72 71//72 68//72
f 68//73 71//73 70//73
f 71//74 30//74 70//74
f 33//75 32//75 69//75
f 32//76 72//76 69//76
f 69//77 72//77 71//77
f 72//78 73//78 71//78
f 71//79 73//79 30//79
f 73//80 28//80 30//80
f 67//81 43//81 45//81
f 70//82 74//82 67//82
f 30//83 75//83 70//83
f 67//84 74//84 43//84
f 74//85 46//85 43//85
f 70//86 75//86 74//86
f 75//87 76//87 74//87
f 74//88 76//88 46//88
f 76//89 42//89 46//89
f 30//90 29//90 75//90
f 29//91 77//91 75//91
f 75//92 77//92 76//92
f 77//93 78//93 76//93
f 76//94 78//94 42//94
f 78//95 40//95 42//95
f 79//96 41//96 40//96
f 80//97 81//97 79//97
f 27//98 82//98 80//98
f 79//99 81//99 41//99
f 81//100 51//100 41//100
f 80//101 82//101 81//101
f 82//102 83//102 81//102
f 81//103 83//103 51//103
f 83//104 52//104 51//104
f 27//105 22//105 82//105
f 22//106 84//106 82//106
f 82//107 84//107 83//107
f 84//108 85//108 83//108
f 83//109 85//109 52//109
f 85//110 37//110 52//110
f 86//111 38//111 37//111
f 87//112 88//112 86//112
f 26//113 89//113 87//113
f 86//114 88//114 38//114
f 88//115 58//115 38//115
f 87//116 89//116 88//116
f 89//117 90//117 88//117
f 88//118 90//118 58//118
f 90//119 59//119 58//119
f 26//120 19//120 89//120
f 19//121 91//121 89//121
f 89//122 91//122 90//122
f 91//123 92//123 90//123
f 90//124 92//124 59//124
f 92//125 34//125 59//125
f 93//126 35//126 34//126
f 94//127 95//127 93//127
f 25//128 96//128 94//128
f 93//129 95//129 35//129
f 95//130 65//130 35//130
f 94//131 96//131 95//131
f 96//132 97//132 95//132
f 95//133 97//133 65//133
f 97//134 66//134 65//134
f 25//135 16//135 96//135
f 16//136 98//136 96//136
f 96//137 98//137 97//137
f 98//138 99//138 97//138
f 97//139 99//139 66//139
f 99//140 31//140 66//140
f 100//141 32//141 31//141
f 101//142 102//142 100//142
f 24//143 103//143 101//143
f 100//144 102//144 32//144
f 102//145 72//145 32//145
f 101//146 103//146 102//146
f 103//147 104//147 102//147
f 102//148 104//148 72//148
f 104//149 73//149 72//149
f 24//150 13//150 103//150
f 13//151 105//151 103//151
f 103//152 105//152 104//152
f 105//153 106//153 104//153
f 104//154 106//154 73//154
f 106//155 28//155 73//155
f 107//156 29//156 28//156
f 108//157 109//157 107//157
f 23//158 110//158 108//158
f 107//159 109//159 29//159
f 109//160 77//160 29//160
f 108//161 110//161 109//161
f 110//162 111//162 109//162
f 109//163 111//163 77//163
f 111//164 78//164 77//164
f 23//165 10//165 110//165
f 10//166 112//166 110//166
f 110//167 112//167 111//167
f 112//168 113//168 111//168
f 111//169 113//169 78//169
f 113//170 40//170 78//170
f 85//171 86//171 37//171
f 84//172 114//172 85//172
f 22//173 115//173 84//173
f 85//174 114//174 86//174
f 114//175 87//175 86//175
f 84//176 115//176 114//176
f 115//177 116//177 114//177
f 114//178 116//178 87//178
f 116//179 26//179 87//179
f 22//180 21//180 115//180
f 21//181 117//181 115//181
f 115//182 117//182 116//182
f 117//183 118//183 116//183
f 116//184 118//184 26//184
f 118//185 17//185 26//185
f 92//186 93//186 34//186
f 91//187 119//187 92//187
f 19//188 120//188 91//188
f 92//189 119//189 93//189
f 119//190 94//190 93//190
f 91//191 120//191 119//191
f 120//192 121//192 119//192
f 119//193 121//193 94//193
f 121//194 25//194 94//194
f 19//195 18//195 120//195
f 18//196 122//196 120//196
f 120//197 122//197 121//197
f 122//198 123//198 121//198
f 121//199 123//199 25//199
f 123//200 14//200 25//200
f 99//201 100//201 31//201
f 98//202 124//202 99//202
f 16//203 125//203 98//203
f 99//204 124//204 100//204
f 124//205 101//205 100//205
f 98//206 125//206 124//206
f 125//207 126//207 124//207
f 124//208 126//208 101//208
f 126//209 24//209 101//209
f 16//210 15//210 125//210
f 15//211 127//211 125//211
f 125//212 127//212 126//212
f 127//213 128//213 126//213
f 126//214 128//214 24//214
f 128//215 11//215 24//215
f 106//216 107//216 28//216
f 105//217 129//217 106//217
f 13//218 130//218 105//218
f 106//219 129//219 107//219
f 129//220 108//220 107//220
f 105//221 130//221 129//221
f 130//222 131//222 129//222
f 129//223 131//223 108//223
f 131//224 23//224 108//224
f 13//225 12//225 130//225
f 12//226 132//226 130//226
f 130//227 132//227 131//227
f 132//228 133//228 131//228
f 131//229 133//229 23//229
f 133//230 4//230 23//230
f 113//231 79//231 40//231
f 112//232 134//232 113//232
f 10//233 135//233 112//233
f 113//234 134//234 79//234
f 134//235 80//235 79//235
f 112//236 135//236 134//236
f 135//237 136//237 134//237
f 134//238 136//238 80//238
f 136//239 27//239 80//239
f 10//240 6//240 135//240
f 6//241 137//241 135//241
f 135//242 137//242 136//242
f 137//243 138//243 136//243
f 136//244 138//244 27//244
f 138//245 20//245 27//245
f 139//246 21//246 20//246
f 140//247 141//247 139//247
f 9//248 142//248 140//248
f 139//249 141//249 21//249
f 141//250 117//250 21//250
f 140//251 142//251 141//251
f 142//252 143//252 141//252
f 141//253 143//253 117//253
f 143//254 118//254 117//254
f 9//255 8//255 142//255
f 8//256 144//256 142//256
f 142//257 144//257 143//257
f 144//258 145//258 143//258
f 143//259 145//259 118//259
f 145//260 17//260 118//260
f 145//261 18//261 17//261
f 144//262 146//262 145//262
f 8//263 147//263 144//263
f 145//264 146//264 18//264
f 146//265 122//265 18//265
f 144//266 147//266 146//266
f 147//267 148//267 146//267
f 146//268 148//268 122//268
f 148//269 123//269 122//269
f 8//270 7//270 147//270
f 7//271 149//271 147//271
f 147//272 149//272 148//272
f 149//273 150//273 148//273
f 148//274 150//274 123//274
f 150//275 14//275 123//275
f 150//276 15//276 14//276
f 149//277 151//277 150//277
f 7//278 152//278 149//278
f 150//279 151//279 15//279
f 151//280 127//280 15//280
f 149//281 152//281 151//281
f 152//282 153//282 151//282
f 151//283 153//283 127//283
f 153//284 128//284 127//284
f 7//285 3//285 152//285
f 3//286 154//286 152//286
f 152//287 154//287 153//287
f 154//288 155//288 153//288
f 153//289 155//289 128//289
f 155//290 11//290 128//290
f 138//291 139//291 20//291
f 137//292 156//292 138//292
f 6//293 157//293 137//293
f 138//294 156//294 139//294
f 156//295 140//295 139//295
f 137//296 157//296 156//296
f 157//297 158//297 156//297
f 156//298 158//298 140//298
f 158//299 9//299 140//299
f 6//300 5//300 157//300
f 5//301 159//301 157//301
f 157//302 159//302 158//302
f 159//303 2//303 158//303
f 158//304 2//304 9//304
f 2//305 1//305 9//305
f 155//306 12//306 11//306
f 154//307 160//307 155//307
f 3//308 161//308 154//308
f 155//309 160//309 12//309
f 160//310 132//310 12//310
f 154//311 161//311 160//311
f 161//312 162//312 160//312
f 160//313 162//313 132//313
f 162//314 133//314 132//314
f 3//315 2//315 161//315
f 2//316 159//316 161//316
f 161//317 159//317 162//317
f 159//318 5//318 162//318
f 162//319 5//319 133//319
f 5//320 4//320 133//320
